<svg width="45" height="27" viewBox="0 0 45 27" fill="none" xmlns="http://www.w3.org/2000/svg">
<path d="M19.9922 25.9999L16.9844 18.2582H7.07227L4.09863 25.9999H0.919922L10.6782 0.912048H13.5151L23.2563 25.9999H19.9922ZM16.0444 15.4726L13.2417 7.90179L12.0454 4.15912C11.7036 5.52631 11.3447 6.77386 10.9688 7.90179L8.13184 15.4726H16.0444ZM37.0649 3.42426C34.3761 3.42426 32.2627 4.32432 30.7246 6.12445C29.1865 7.92458 28.4175 10.3855 28.4175 13.5073C28.4175 16.7315 29.1637 19.221 30.6562 20.9755C32.1488 22.7187 34.2736 23.5903 37.0308 23.5903C38.8081 23.5903 40.8076 23.2599 43.0293 22.5991V25.3334C41.9697 25.7208 40.95 25.9828 39.9702 26.1196C38.9904 26.2677 37.8625 26.3417 36.5864 26.3417C32.9064 26.3417 30.0695 25.2252 28.0757 22.9921C26.0933 20.7477 25.1021 17.5746 25.1021 13.4731C25.1021 10.8982 25.5749 8.64235 26.5205 6.70551C27.4775 4.76866 28.8618 3.27614 30.6733 2.22797C32.4963 1.17979 34.6382 0.655701 37.0991 0.655701C39.7424 0.655701 42.0438 1.14561 44.0034 2.12543L42.7388 4.79144C40.745 3.87998 38.8537 3.42426 37.0649 3.42426Z" fill="white"/>
</svg>
