<svg width="35" height="21" viewBox="0 0 35 21" fill="none" xmlns="http://www.w3.org/2000/svg">
<g clip-path="url(#clip0_747_2052)">
<path d="M31.325 2.0125V8.05C31.325 8.3125 31.15 8.4875 30.8875 8.4875H7.0875L12.425 3.15C13.125 2.45 13.125 1.4 12.425 0.7L12.25 0.525C11.55 -0.175 10.5 -0.175 9.8 0.525L0 10.325L9.8 20.125C10.5 20.825 11.55 20.825 12.25 20.125L12.3375 20.0375C13.0375 19.3375 13.0375 18.2875 12.3375 17.5875L7 12.25H33.25C34.2125 12.25 35 11.4625 35 10.5V2.0125C35 1.05 34.2125 0.2625 33.25 0.2625H33.075C32.1125 0.2625 31.325 1.05 31.325 2.0125Z" fill="white"/>
</g>
<defs>
<clipPath id="clip0_747_2052">
<rect width="35" height="20.65" fill="white"/>
</clipPath>
</defs>
</svg>
