<svg width="43" height="22" viewBox="0 0 43 22" fill="none" xmlns="http://www.w3.org/2000/svg">
<path d="M8.2959 22H5.71777V7.02927C5.71777 5.70114 5.75684 4.47067 5.83496 3.33786C5.56152 3.63083 5.26855 3.90427 4.95605 4.15817C3.95996 4.98825 2.87109 5.88669 1.68945 6.85349L0.3125 5.08102L6.11328 0.583954H8.2959V22ZM25.6689 0.583954L17.7002 22H15.1074L23.0908 0.583954H25.6689ZM25.376 22L25.7129 20.7402H26.0938C26.6406 20.7402 27.1143 20.6181 27.5146 20.374C27.9248 20.1201 28.4912 19.5537 29.2139 18.6748L33.0518 14.0166L31.1035 9.34372C30.7227 8.41599 30.4053 7.82516 30.1514 7.57126C29.9072 7.30759 29.5068 7.17575 28.9502 7.17575H28.5547L28.8037 5.91599H32.7881L35.0732 11.9804L39.0576 5.91599H42.8955L42.4121 7.17575H42.0312C41.4453 7.17575 40.9521 7.31735 40.5518 7.60056C40.1611 7.88376 39.6143 8.46481 38.9111 9.34372L35.7617 13.3867L37.8271 18.5869C38.1787 19.4853 38.4766 20.0713 38.7207 20.3447C38.9746 20.6084 39.3945 20.7402 39.9805 20.7402H40.376L40.1416 22H36.1133L33.6816 15.3935L29.1846 22H25.376Z" fill="white"/>
</svg>
