<svg width="45" height="18" viewBox="0 0 45 18" fill="none" xmlns="http://www.w3.org/2000/svg">
<path d="M7.5127 17.2929C5.19824 17.2929 3.39648 16.5849 2.10742 15.1689C0.818359 13.7431 0.173828 11.7021 0.173828 9.04587C0.173828 6.35056 0.823242 4.27536 2.12207 2.82028C3.43066 1.35544 5.29102 0.623016 7.70312 0.623016C8.48438 0.623016 9.25586 0.706024 10.0176 0.87204C10.7891 1.02829 11.4238 1.23337 11.9219 1.48727L11.1162 3.68454C9.75879 3.17673 8.60156 2.92282 7.64453 2.92282C6.02344 2.92282 4.82715 3.43552 4.05566 4.46091C3.28418 5.47653 2.89844 6.99509 2.89844 9.01657C2.89844 10.9599 3.28418 12.4492 4.05566 13.4843C4.82715 14.5097 5.96973 15.0224 7.4834 15.0224C8.89941 15.0224 10.291 14.7099 11.6582 14.0849V16.4287C10.5449 17.0049 9.16309 17.2929 7.5127 17.2929ZM29.4561 8.92868C29.4561 11.5556 28.792 13.6064 27.4639 15.081C26.1357 16.5556 24.2998 17.2929 21.9561 17.2929C20.501 17.2929 19.2119 16.956 18.0889 16.2822C16.9658 15.5986 16.1016 14.622 15.4961 13.3525C14.8906 12.083 14.5879 10.6084 14.5879 8.92868C14.5879 6.31149 15.2422 4.27536 16.5508 2.82028C17.8594 1.35544 19.6953 0.623016 22.0586 0.623016C24.3242 0.623016 26.1211 1.37009 27.4492 2.86423C28.7871 4.3486 29.4561 6.37009 29.4561 8.92868ZM17.3125 8.92868C17.3125 10.9502 17.708 12.4883 18.499 13.5429C19.2998 14.5879 20.4766 15.1103 22.0293 15.1103C23.5625 15.1103 24.7295 14.5879 25.5303 13.5429C26.3311 12.4883 26.7314 10.9502 26.7314 8.92868C26.7314 6.9072 26.3262 5.38864 25.5156 4.37302C24.7148 3.34763 23.5381 2.83493 21.9854 2.83493C18.8701 2.83493 17.3125 4.86618 17.3125 8.92868ZM44.1191 12.5615C44.1191 14.0654 43.5576 15.2324 42.4346 16.0625C41.3115 16.8828 39.7344 17.2929 37.7031 17.2929C35.584 17.2929 33.8994 16.956 32.6494 16.2822V13.8799C34.417 14.7392 36.1211 15.1689 37.7617 15.1689C39.0898 15.1689 40.0566 14.9541 40.6621 14.5244C41.2676 14.0947 41.5703 13.5185 41.5703 12.7959C41.5703 12.1611 41.2773 11.624 40.6914 11.1845C40.1152 10.7451 39.085 10.2422 37.6006 9.67575C36.0869 9.08981 35.0225 8.59177 34.4072 8.18161C33.792 7.76169 33.3379 7.29294 33.0449 6.77536C32.7617 6.25778 32.6201 5.6279 32.6201 4.88571C32.6201 3.56735 33.1572 2.52731 34.2314 1.76559C35.3057 1.00388 36.7803 0.623016 38.6553 0.623016C40.4814 0.623016 42.1904 0.984344 43.7822 1.707L42.8887 3.80173C41.2578 3.11813 39.7881 2.77634 38.4795 2.77634C37.3857 2.77634 36.5557 2.95212 35.9893 3.30368C35.4229 3.64548 35.1396 4.11911 35.1396 4.72458C35.1396 5.31052 35.3838 5.7988 35.8721 6.18942C36.3604 6.57028 37.498 7.10251 39.2852 7.7861C40.623 8.28415 41.6094 8.74802 42.2441 9.1777C42.8887 9.60739 43.3623 10.0908 43.665 10.6279C43.9678 11.165 44.1191 11.8095 44.1191 12.5615Z" fill="white"/>
</svg>
