<svg width="44" height="23" viewBox="0 0 44 23" fill="none" xmlns="http://www.w3.org/2000/svg">
<path d="M10.2773 22L3.2168 3.2207H3.09961C3.24609 4.7832 3.31934 6.71191 3.31934 9.00684V22H0.829102V0.583984H4.81348L11.4199 18.1328H11.5371L18.2607 0.583984H22.2158V22H19.5498V8.83105C19.5498 7.36621 19.6182 5.50586 19.7549 3.25H19.6377L12.4893 22H10.2773ZM37.2158 2.64941C34.9111 2.64941 33.0996 3.4209 31.7812 4.96387C30.4629 6.50684 29.8037 8.61621 29.8037 11.292C29.8037 14.0557 30.4434 16.1895 31.7227 17.6934C33.002 19.1875 34.8232 19.9346 37.1865 19.9346C38.71 19.9346 40.4238 19.6514 42.3281 19.085V21.4287C41.4199 21.7607 40.5459 21.9854 39.7061 22.1025C38.8662 22.2295 37.8994 22.293 36.8057 22.293C33.6514 22.293 31.2197 21.3359 29.5107 19.4219C27.8115 17.498 26.9619 14.7783 26.9619 11.2627C26.9619 9.05566 27.3672 7.12207 28.1777 5.46191C28.998 3.80176 30.1846 2.52246 31.7373 1.62402C33.2998 0.725586 35.1357 0.276367 37.2451 0.276367C39.5107 0.276367 41.4834 0.696289 43.1631 1.53613L42.0791 3.82129C40.3701 3.04004 38.749 2.64941 37.2158 2.64941Z" fill="white"/>
</svg>
