<svg width="44" height="22" viewBox="0 0 44 22" fill="none" xmlns="http://www.w3.org/2000/svg">
<path d="M10.4238 22L3.36328 3.2207H3.24609C3.39258 4.7832 3.46582 6.71191 3.46582 9.00684V22H0.975586V0.583984H4.95996L11.5664 18.1328H11.6836L18.4072 0.583984H22.3623V22H19.6963V8.83105C19.6963 7.36621 19.7646 5.50586 19.9014 3.25H19.7842L12.6357 22H10.4238ZM30.8877 10.8672H34.0957C35.834 10.8672 37.1035 10.5254 37.9043 9.8418C38.7051 9.1582 39.1055 8.14258 39.1055 6.79492C39.1055 5.44727 38.7002 4.46582 37.8896 3.85059C37.0791 3.22559 35.7656 2.91309 33.9492 2.91309H30.8877V10.8672ZM30.8877 13.1523V22H28.1924V0.583984H34.0957C36.752 0.583984 38.7148 1.0918 39.9844 2.10742C41.2637 3.11328 41.9033 4.63184 41.9033 6.66309C41.9033 9.50488 40.4727 11.4189 37.6113 12.4053L43.4854 22H40.3359L35.1504 13.1523H30.8877Z" fill="white"/>
</svg>
