<svg width="40" height="23" viewBox="0 0 40 23" fill="none" xmlns="http://www.w3.org/2000/svg">
<path d="M9.52246 22L2.46191 3.2207H2.34473C2.49121 4.7832 2.56445 6.71191 2.56445 9.00684V22H0.0742188V0.583984H4.05859L10.665 18.1328H10.7822L17.5059 0.583984H21.4609V22H18.7949V8.83105C18.7949 7.36621 18.8633 5.50586 19 3.25H18.8828L11.7344 22H9.52246ZM39.4346 16.2725C39.4346 18.1377 38.7607 19.6074 37.4131 20.6816C36.0654 21.7559 34.1904 22.293 31.7881 22.293C29.249 22.293 27.2861 21.9561 25.8994 21.2822V18.7041C26.8076 19.0947 27.7988 19.4023 28.873 19.627C29.957 19.8516 30.9678 19.9639 31.9053 19.9639C33.5068 19.9639 34.7129 19.6562 35.5234 19.041C36.334 18.4258 36.7393 17.5811 36.7393 16.5068C36.7393 15.7939 36.5928 15.208 36.2998 14.749C36.0068 14.29 35.5137 13.8604 34.8203 13.46C34.1367 13.0596 33.0967 12.6055 31.7002 12.0977C29.7178 11.375 28.3018 10.5254 27.4521 9.54883C26.6025 8.5625 26.1777 7.29297 26.1777 5.74023C26.1777 4.07031 26.8027 2.74219 28.0527 1.75586C29.3125 0.769531 30.9678 0.276367 33.0186 0.276367C35.1572 0.276367 37.125 0.676758 38.9219 1.47754L38.0869 3.79199C36.251 3.03027 34.542 2.64941 32.96 2.64941C31.6904 2.64941 30.6943 2.92285 29.9717 3.46973C29.2588 4.0166 28.9023 4.7832 28.9023 5.76953C28.9023 6.47266 29.0391 7.05859 29.3125 7.52734C29.5957 7.98633 30.0449 8.40625 30.6602 8.78711C31.2852 9.16797 32.2617 9.60254 33.5898 10.0908C35.1816 10.6768 36.3682 11.248 37.1494 11.8047C37.9307 12.3516 38.5068 12.9863 38.8779 13.709C39.249 14.4219 39.4346 15.2764 39.4346 16.2725Z" fill="white"/>
</svg>
