<svg width="20" height="30" viewBox="0 0 20 30" fill="none" xmlns="http://www.w3.org/2000/svg">
<path d="M18.2814 7.125C18.2814 8.94792 17.7671 10.4453 16.7384 11.6172C15.7228 12.7891 14.2644 13.5703 12.3634 13.9609V14.1172C14.6421 14.4036 16.3413 15.1328 17.4611 16.3047C18.5939 17.4766 19.1603 19 19.1603 20.875C19.1603 23.5964 18.2163 25.6992 16.3282 27.1836C14.4402 28.6549 11.7319 29.3906 8.20325 29.3906C6.69283 29.3906 5.2996 29.2799 4.02356 29.0586C2.76054 28.8372 1.53658 28.4336 0.351686 27.8477V24.5664C1.56262 25.1654 2.8582 25.6276 4.2384 25.9531C5.61861 26.2786 6.95325 26.4414 8.24231 26.4414C13.06 26.4414 15.4689 24.5599 15.4689 20.7969C15.4689 17.4375 12.8061 15.7578 7.48059 15.7578H4.70715V12.7695H7.51965C9.75924 12.7695 11.5105 12.2943 12.7736 11.3438C14.0366 10.3802 14.6681 9.05208 14.6681 7.35938C14.6681 5.99219 14.2059 4.92448 13.2814 4.15625C12.3699 3.38802 11.1004 3.00391 9.47278 3.00391C8.20976 3.00391 7.03788 3.17969 5.95715 3.53125C4.88945 3.86979 3.65898 4.49479 2.26575 5.40625L0.507936 3.00391C1.67981 2.07943 3.02747 1.35677 4.5509 0.835938C6.08736 0.302083 7.71497 0.0351562 9.43372 0.0351562C12.2202 0.0351562 14.3881 0.673177 15.9376 1.94922C17.5001 3.21224 18.2814 4.9375 18.2814 7.125Z" fill="white"/>
</svg>
