<svg width="20" height="30" viewBox="0 0 20 30" fill="none" xmlns="http://www.w3.org/2000/svg">
<path d="M19.3553 12.6328C19.3553 23.8047 14.9803 29.3906 6.23035 29.3906C4.71993 29.3906 3.52201 29.2604 2.6366 29V25.9922C3.6392 26.3437 4.81108 26.5195 6.15222 26.5195C8.27462 26.5195 10.0259 26.0963 11.4061 25.25C12.7863 24.3906 13.8345 23.1471 14.5507 21.5195C15.2798 19.8789 15.6965 17.7044 15.8007 14.9961H15.5468C14.0884 17.2096 11.8228 18.3164 8.74988 18.3164C6.23686 18.3164 4.23816 17.5547 2.75378 16.0312C1.28243 14.4948 0.546753 12.3789 0.546753 9.68356C0.546753 6.74085 1.37358 4.3971 3.02722 2.65231C4.68087 0.907522 6.89441 0.0351257 9.66785 0.0351257C11.621 0.0351257 13.3267 0.536428 14.785 1.53903C16.2564 2.52862 17.3827 3.98044 18.1639 5.8945C18.9582 7.79554 19.3553 10.0416 19.3553 12.6328ZM9.66785 3.00388C7.89701 3.00388 6.51681 3.5833 5.52722 4.74216C4.53764 5.90101 4.04285 7.53513 4.04285 9.6445C4.04285 11.5455 4.50509 13.0039 5.42957 14.0195C6.36707 15.0221 7.72774 15.5234 9.5116 15.5234C10.6835 15.5234 11.7512 15.289 12.7147 14.8203C13.6783 14.3385 14.4335 13.694 14.9803 12.8867C15.5272 12.0794 15.8007 11.2265 15.8007 10.3281C15.8007 9.02601 15.5402 7.80856 15.0194 6.67575C14.5116 5.54294 13.7955 4.65101 12.871 3.99997C11.9465 3.33591 10.8788 3.00388 9.66785 3.00388Z" fill="white"/>
</svg>
