<svg width="37" height="24" viewBox="0 0 37 24" fill="none" xmlns="http://www.w3.org/2000/svg">
<path d="M11.6904 18.5615C11.6904 20.0654 11.1289 21.2324 10.0059 22.0625C8.88281 22.8828 7.30566 23.2929 5.27441 23.2929C3.15527 23.2929 1.4707 22.956 0.220703 22.2822V19.8799C1.98828 20.7392 3.69238 21.1689 5.33301 21.1689C6.66113 21.1689 7.62793 20.9541 8.2334 20.5244C8.83887 20.0947 9.1416 19.5185 9.1416 18.7959C9.1416 18.1611 8.84863 17.624 8.2627 17.1845C7.68652 16.7451 6.65625 16.2422 5.17188 15.6758C3.6582 15.0898 2.59375 14.5918 1.97852 14.1816C1.36328 13.7617 0.90918 13.2929 0.616211 12.7754C0.333008 12.2578 0.191406 11.6279 0.191406 10.8857C0.191406 9.56735 0.728516 8.52731 1.80273 7.76559C2.87695 7.00388 4.35156 6.62302 6.22656 6.62302C8.05273 6.62302 9.76172 6.98434 11.3535 7.707L10.46 9.80173C8.8291 9.11813 7.35938 8.77634 6.05078 8.77634C4.95703 8.77634 4.12695 8.95212 3.56055 9.30368C2.99414 9.64548 2.71094 10.1191 2.71094 10.7246C2.71094 11.3105 2.95508 11.7988 3.44336 12.1894C3.93164 12.5703 5.06934 13.1025 6.85645 13.7861C8.19434 14.2841 9.18066 14.748 9.81543 15.1777C10.46 15.6074 10.9336 16.0908 11.2363 16.6279C11.5391 17.165 11.6904 17.8095 11.6904 18.5615ZM18.2383 23H15.6016V6.91599H18.2383V23ZM15.3965 2.5654C15.3965 1.97946 15.543 1.55466 15.8359 1.29099C16.1387 1.02731 16.5098 0.895477 16.9492 0.895477C17.3594 0.895477 17.7158 1.02731 18.0186 1.29099C18.3311 1.55466 18.4873 1.97946 18.4873 2.5654C18.4873 3.14157 18.3311 3.56638 18.0186 3.83981C17.7158 4.11325 17.3594 4.24997 16.9492 4.24997C16.5098 4.24997 16.1387 4.11325 15.8359 3.83981C15.543 3.56638 15.3965 3.14157 15.3965 2.5654ZM34.293 23V12.7168C34.293 11.4082 34 10.4365 33.4141 9.80173C32.8379 9.1572 31.9297 8.83493 30.6895 8.83493C29.0391 8.83493 27.8379 9.29391 27.0859 10.2119C26.3438 11.1201 25.9727 12.6045 25.9727 14.665V23H23.3359V6.91599H25.46L25.8555 9.11325H26.002C26.5 8.32224 27.1982 7.71188 28.0967 7.2822C28.9951 6.84274 29.9863 6.62302 31.0703 6.62302C33.043 6.62302 34.5078 7.10153 35.4648 8.05856C36.4219 9.01559 36.9004 10.5049 36.9004 12.5263V23H34.293Z" fill="white"/>
</svg>
