<svg width="17" height="23" viewBox="0 0 17 23" fill="none" xmlns="http://www.w3.org/2000/svg">
<path d="M10.6073 2.64938C8.30261 2.64938 6.49109 3.42087 5.17273 4.96384C3.85437 6.50681 3.19519 8.61618 3.19519 11.292C3.19519 14.0556 3.83484 16.1894 5.11414 17.6933C6.39343 19.1875 8.21472 19.9345 10.578 19.9345C12.1014 19.9345 13.8153 19.6513 15.7196 19.0849V21.4287C14.8114 21.7607 13.9374 21.9853 13.0975 22.1025C12.2577 22.2295 11.2909 22.2929 10.1971 22.2929C7.04285 22.2929 4.61121 21.3359 2.90222 19.4218C1.203 17.498 0.353394 14.7783 0.353394 11.2627C0.353394 9.05563 0.758667 7.12204 1.56921 5.46188C2.38953 3.80173 3.57605 2.52243 5.12878 1.62399C6.69128 0.725555 8.52722 0.276337 10.6366 0.276337C12.9022 0.276337 14.8749 0.696259 16.5546 1.5361L15.4706 3.82126C13.7616 3.04001 12.1405 2.64938 10.6073 2.64938Z" fill="white"/>
</svg>
