<svg width="33" height="23" viewBox="0 0 33 23" fill="none" xmlns="http://www.w3.org/2000/svg">
<path d="M10.2578 2.64938C7.95312 2.64938 6.1416 3.42087 4.82324 4.96384C3.50488 6.50681 2.8457 8.61618 2.8457 11.292C2.8457 14.0556 3.48535 16.1894 4.76465 17.6933C6.04395 19.1875 7.86523 19.9345 10.2285 19.9345C11.752 19.9345 13.4658 19.6513 15.3701 19.0849V21.4287C14.4619 21.7607 13.5879 21.9853 12.748 22.1025C11.9082 22.2295 10.9414 22.2929 9.84766 22.2929C6.69336 22.2929 4.26172 21.3359 2.55273 19.4218C0.853516 17.498 0.00390625 14.7783 0.00390625 11.2627C0.00390625 9.05563 0.40918 7.12204 1.21973 5.46188C2.04004 3.80173 3.22656 2.52243 4.7793 1.62399C6.3418 0.725555 8.17773 0.276337 10.2871 0.276337C12.5527 0.276337 14.5254 0.696259 16.2051 1.5361L15.1211 3.82126C13.4121 3.04001 11.791 2.64938 10.2578 2.64938ZM32.0107 22H20.043V0.583954H32.0107V2.957H22.7383V9.63669H31.4688V11.9804H22.7383V19.6269H32.0107V22Z" fill="white"/>
</svg>
