<svg width="35" height="27" viewBox="0 0 35 27" fill="none" xmlns="http://www.w3.org/2000/svg">
<path d="M32.1125 0H10.2375C9.1875 0 8.4 0.525 7.875 1.3125L0 13.125L7.875 24.9375C8.4 25.725 9.1875 26.25 10.2375 26.25H32.1125C33.6875 26.25 35 24.9375 35 23.3625V2.8875C35 1.3125 33.6875 0 32.1125 0ZM26.6875 19.425C26.1625 19.95 25.2 19.95 24.675 19.425L20.475 15.225L16.275 19.425C15.75 19.95 14.7875 19.95 14.2625 19.425C13.7375 18.9 13.7375 17.9375 14.2625 17.4125L18.375 13.125L14.175 8.925C13.65 8.4 13.65 7.4375 14.175 6.9125C14.7 6.3875 15.6625 6.3875 16.275 6.9125L20.475 11.1125L24.675 6.9125C25.2 6.3875 26.1625 6.3875 26.6875 6.9125C27.2125 7.4375 27.2125 8.4 26.6875 9.0125L22.4875 13.125L26.6875 17.325C27.2125 17.9375 27.2125 18.8125 26.6875 19.425Z" fill="white"/>
</svg>
