<svg width="20" height="30" viewBox="0 0 20 30" fill="none" xmlns="http://www.w3.org/2000/svg">
<path d="M9.96082 0.0351257C12.565 0.0351257 14.6418 0.640594 16.1913 1.85153C17.7408 3.06247 18.5155 4.73565 18.5155 6.87106C18.5155 8.30335 18.0793 9.58591 17.2069 10.7187C16.3475 11.8515 14.9673 12.9062 13.0663 13.8828C15.371 15.0026 17.0051 16.1744 17.9686 17.3984C18.9452 18.6093 19.4335 20.0091 19.4335 21.5976C19.4335 23.9674 18.5936 25.8619 16.9139 27.2812C15.2343 28.6875 12.9556 29.3906 10.078 29.3906C7.03113 29.3906 4.67436 28.7265 3.00769 27.3984C1.34102 26.0703 0.50769 24.1758 0.50769 21.7148C0.50769 18.4596 2.48035 15.914 6.42566 14.0781C4.65483 13.0625 3.37878 11.9687 2.59753 10.7968C1.81628 9.62497 1.42566 8.30335 1.42566 6.832C1.42566 4.76169 2.2004 3.11455 3.74988 1.89059C5.31238 0.653615 7.38269 0.0351257 9.96082 0.0351257ZM3.94519 21.7539C3.94519 23.2643 4.47904 24.4492 5.54675 25.3086C6.62748 26.1679 8.11186 26.5976 9.99988 26.5976C11.8619 26.5976 13.3267 26.1614 14.3944 25.289C15.4621 24.4036 15.996 23.1862 15.996 21.6367C15.996 20.3867 15.4882 19.2734 14.4725 18.2968C13.4569 17.3203 11.7512 16.3958 9.35535 15.5234C7.46733 16.3307 6.09363 17.2291 5.23425 18.2187C4.37488 19.2083 3.94519 20.3867 3.94519 21.7539ZM9.92175 2.88669C8.38529 2.88669 7.16134 3.25127 6.24988 3.98044C5.33842 4.7096 4.88269 5.71872 4.88269 7.00778C4.88269 7.82809 5.05847 8.55075 5.41003 9.17575C5.7616 9.80075 6.26941 10.3606 6.93347 10.8554C7.59753 11.3502 8.65873 11.9036 10.1171 12.5156C11.9009 11.7734 13.1639 10.9596 13.9061 10.0742C14.6613 9.18877 15.0389 8.16664 15.0389 7.00778C15.0389 5.7057 14.5767 4.69658 13.6522 3.98044C12.7277 3.25127 11.4843 2.88669 9.92175 2.88669Z" fill="white"/>
</svg>
