<svg width="20" height="31" viewBox="0 0 20 31" fill="none" xmlns="http://www.w3.org/2000/svg">
<path d="M19.4728 15.6836C19.4728 20.6445 18.685 24.3359 17.1095 26.7578C15.547 29.1797 13.1642 30.3906 9.96106 30.3906C6.8621 30.3906 4.51184 29.1471 2.91028 26.6602C1.30872 24.1602 0.507936 20.5013 0.507936 15.6836C0.507936 10.7096 1.27616 7.01823 2.81262 4.60938C4.3621 2.20052 6.74491 0.996094 9.96106 0.996094C13.06 0.996094 15.4168 2.24609 17.0314 4.74609C18.659 7.24609 19.4728 10.8919 19.4728 15.6836ZM4.04309 15.6836C4.04309 19.8242 4.51184 22.8125 5.44934 24.6484C6.39986 26.4844 7.90377 27.4023 9.96106 27.4023C12.0444 27.4023 13.5548 26.4648 14.4923 24.5898C15.4428 22.7018 15.9181 19.7331 15.9181 15.6836C15.9181 11.6732 15.4428 8.72396 14.4923 6.83594C13.5548 4.94792 12.0444 4.00391 9.96106 4.00391C7.87773 4.00391 6.36731 4.92839 5.42981 6.77734C4.50533 8.6263 4.04309 11.5951 4.04309 15.6836Z" fill="white"/>
</svg>
