<svg width="20" height="30" viewBox="0 0 20 30" fill="none" xmlns="http://www.w3.org/2000/svg">
<path d="M0.761597 16.7929C0.761597 5.62106 5.11707 0.0351257 13.828 0.0351257C15.3384 0.0351257 16.5168 0.158824 17.3632 0.406219V3.3945C16.3736 3.082 15.2212 2.92575 13.9061 2.92575C10.8723 2.92575 8.54806 3.85023 6.93347 5.69919C5.33191 7.54815 4.44649 10.4778 4.27722 14.4883H4.5116C5.94389 12.2487 8.19649 11.1289 11.2694 11.1289C13.8475 11.1289 15.8723 11.9101 17.3436 13.4726C18.815 15.0351 19.5507 17.1445 19.5507 19.8008C19.5507 22.7565 18.7369 25.0937 17.1093 26.8125C15.4816 28.5312 13.2681 29.3906 10.4686 29.3906C8.5155 29.3906 6.80326 28.8958 5.33191 27.9062C3.87358 26.9166 2.74727 25.4713 1.953 23.5703C1.15873 21.6562 0.761597 19.3971 0.761597 16.7929ZM10.4296 26.4414C12.2395 26.4414 13.6327 25.8619 14.6093 24.7031C15.5858 23.5442 16.0741 21.9101 16.0741 19.8008C16.0741 17.8997 15.5988 16.4414 14.6483 15.4258C13.6978 14.3971 12.3306 13.8828 10.5468 13.8828C9.41394 13.8828 8.37227 14.1172 7.42175 14.5859C6.48425 15.0547 5.72904 15.7057 5.15613 16.539C4.59623 17.3724 4.31628 18.2317 4.31628 19.1172C4.31628 20.4192 4.5767 21.6432 5.09753 22.789C5.61837 23.9218 6.34102 24.8138 7.2655 25.4648C8.18998 26.1159 9.24467 26.4414 10.4296 26.4414Z" fill="white"/>
</svg>
