<svg width="60" height="60" viewBox="0 0 60 60" fill="none" xmlns="http://www.w3.org/2000/svg">
<path d="M15.3994 42L15.7363 40.7402H16.1172C16.6641 40.7402 17.1377 40.6181 17.5381 40.374C17.9482 40.1201 18.5146 39.5537 19.2373 38.6748L23.0752 34.0166L21.127 29.3437C20.7461 28.416 20.4287 27.8252 20.1748 27.5713C19.9307 27.3076 19.5303 27.1758 18.9736 27.1758H18.5781L18.8271 25.916H22.8115L25.0967 31.9804L29.0811 25.916H32.9189L32.4355 27.1758H32.0547C31.4688 27.1758 30.9756 27.3174 30.5752 27.6006C30.1846 27.8838 29.6377 28.4648 28.9346 29.3437L25.7852 33.3867L27.8506 38.5869C28.2021 39.4853 28.5 40.0713 28.7441 40.3447C28.998 40.6084 29.418 40.7402 30.0039 40.7402H30.3994L30.165 42H26.1367L23.7051 35.3935L19.208 42H15.3994Z" fill="white"/>
<path d="M36.7388 22.3862C36.6509 22.0932 36.5312 21.8882 36.3799 21.771C36.2285 21.6489 36.0039 21.5879 35.7061 21.5879H35.5522L35.6694 20.958H37.8594L39.0312 25.0083C39.3926 26.2632 39.6025 27.1689 39.6611 27.7256H39.7051C41.0576 25.6699 41.7339 24.0097 41.7339 22.7451C41.7339 22.2031 41.4873 21.9321 40.9941 21.9321C40.9941 21.5952 41.0918 21.3266 41.2871 21.1264C41.4824 20.9262 41.7119 20.8261 41.9756 20.8261C42.6543 20.8261 42.9937 21.2461 42.9937 22.0859C42.9937 23.292 42.3198 24.9887 40.9722 27.1762C39.6245 29.3589 38.543 30.8091 37.7275 31.5268C36.917 32.2446 35.8477 32.6035 34.5195 32.6035C33.9922 32.6035 33.521 32.5132 33.106 32.3325L33.333 31.5781C33.6846 31.6904 34.0752 31.7466 34.5049 31.7466C35.9355 31.7466 37.3394 30.8359 38.7163 29.0146L36.7388 22.3862Z" fill="white"/>
</svg>
