<svg width="19" height="30" viewBox="0 0 19 30" fill="none" xmlns="http://www.w3.org/2000/svg">
<path d="M8.55066 11.4804C11.5324 11.4804 13.8762 12.2291 15.5819 13.7265C17.3007 15.2239 18.16 17.2747 18.16 19.8789C18.16 22.8476 17.216 25.1784 15.328 26.8711C13.44 28.5508 10.8228 29.3906 7.47644 29.3906C4.28634 29.3906 1.81889 28.8763 0.0740967 27.8476V24.5273C1.03764 25.1002 2.19649 25.556 3.55066 25.8945C4.90483 26.233 6.22644 26.4023 7.5155 26.4023C9.75509 26.4023 11.4869 25.8685 12.7108 24.8008C13.9348 23.733 14.5468 22.2096 14.5468 20.2304C14.5468 16.3763 12.1639 14.4492 7.39832 14.4492C5.86186 14.4492 4.23425 14.6445 2.5155 15.0351L0.75769 13.9218L1.83191 0.445282H16.1483V3.64841H4.83972L4.15613 11.9297C5.65352 11.6302 7.11837 11.4804 8.55066 11.4804Z" fill="white"/>
</svg>
