<svg width="20" height="29" viewBox="0 0 20 29" fill="none" xmlns="http://www.w3.org/2000/svg">
<path d="M19.7838 29H0.897077V26.0703L8.37755 18.5117C10.6301 16.2331 12.121 14.6055 12.8502 13.6289C13.5794 12.6523 14.1197 11.7083 14.4713 10.7969C14.8359 9.88542 15.0182 8.90234 15.0182 7.84766C15.0182 6.33724 14.569 5.15885 13.6705 4.3125C12.7721 3.46615 11.5416 3.04297 9.97911 3.04297C8.80723 3.04297 7.69395 3.23828 6.63926 3.62891C5.5976 4.01953 4.41921 4.72917 3.10411 5.75781L1.22911 3.39453C3.89838 1.15495 6.81505 0.0351562 9.97911 0.0351562C12.6354 0.0351562 14.7382 0.71875 16.2877 2.08594C17.8502 3.4401 18.6315 5.28906 18.6315 7.63281C18.6315 8.88281 18.4036 10.0938 17.9479 11.2656C17.4921 12.4245 16.8085 13.6094 15.8971 14.8203C14.9856 16.0182 13.4557 17.6654 11.3072 19.7617L5.3502 25.6406V25.7969H19.7838V29Z" fill="white"/>
</svg>
